<?xml version="1.0" encoding="UTF-8"?>
<svg xmlns="http://www.w3.org/2000/svg" viewBox="0 0 200 200" width="200" height="200">
  <rect width="200" height="200" fill="#0a0a0a"/>
  <rect x="10" y="10" width="60" height="60" fill="none" stroke="#d4a017" stroke-width="6"/>
  <rect x="22" y="22" width="36" height="36" fill="#d4a017"/>
  <rect x="130" y="10" width="60" height="60" fill="none" stroke="#d4a017" stroke-width="6"/>
  <rect x="142" y="22" width="36" height="36" fill="#d4a017"/>
  <rect x="10" y="130" width="60" height="60" fill="none" stroke="#d4a017" stroke-width="6"/>
  <rect x="22" y="142" width="36" height="36" fill="#d4a017"/>
  <g fill="#d4a017">
    <rect x="80" y="20" width="6" height="6"/>
    <rect x="92" y="20" width="6" height="6"/>
    <rect x="104" y="26" width="6" height="6"/>
    <rect x="80" y="32" width="6" height="6"/>
    <rect x="100" y="38" width="6" height="6"/>
    <rect x="80" y="50" width="6" height="6"/>
    <rect x="86" y="50" width="6" height="6"/>
    <rect x="98" y="56" width="6" height="6"/>
    <rect x="110" y="62" width="6" height="6"/>
    <rect x="80" y="68" width="6" height="6"/>
    <rect x="98" y="74" width="6" height="6"/>
    <rect x="110" y="80" width="6" height="6"/>
    <rect x="80" y="86" width="6" height="6"/>
    <rect x="92" y="86" width="6" height="6"/>
    <rect x="104" y="92" width="6" height="6"/>
    <rect x="80" y="98" width="6" height="6"/>
    <rect x="98" y="104" width="6" height="6"/>
    <rect x="86" y="110" width="6" height="6"/>
    <rect x="104" y="116" width="6" height="6"/>
    <rect x="20" y="80" width="6" height="6"/>
    <rect x="32" y="86" width="6" height="6"/>
    <rect x="44" y="92" width="6" height="6"/>
    <rect x="20" y="98" width="6" height="6"/>
    <rect x="38" y="104" width="6" height="6"/>
    <rect x="20" y="110" width="6" height="6"/>
    <rect x="32" y="116" width="6" height="6"/>
    <rect x="44" y="116" width="6" height="6"/>
    <rect x="80" y="122" width="6" height="6"/>
    <rect x="92" y="128" width="6" height="6"/>
    <rect x="104" y="134" width="6" height="6"/>
    <rect x="116" y="140" width="6" height="6"/>
    <rect x="80" y="146" width="6" height="6"/>
    <rect x="98" y="152" width="6" height="6"/>
    <rect x="110" y="158" width="6" height="6"/>
    <rect x="122" y="164" width="6" height="6"/>
    <rect x="80" y="170" width="6" height="6"/>
    <rect x="92" y="170" width="6" height="6"/>
    <rect x="104" y="176" width="6" height="6"/>
    <rect x="140" y="80" width="6" height="6"/>
    <rect x="152" y="86" width="6" height="6"/>
    <rect x="164" y="92" width="6" height="6"/>
    <rect x="176" y="86" width="6" height="6"/>
    <rect x="140" y="98" width="6" height="6"/>
    <rect x="158" y="104" width="6" height="6"/>
    <rect x="170" y="110" width="6" height="6"/>
    <rect x="140" y="116" width="6" height="6"/>
    <rect x="158" y="122" width="6" height="6"/>
    <rect x="140" y="140" width="6" height="6"/>
    <rect x="152" y="146" width="6" height="6"/>
    <rect x="164" y="152" width="6" height="6"/>
    <rect x="176" y="158" width="6" height="6"/>
    <rect x="140" y="164" width="6" height="6"/>
    <rect x="158" y="170" width="6" height="6"/>
    <rect x="170" y="176" width="6" height="6"/>
  </g>
  <text x="100" y="195" text-anchor="middle" font-family="monospace" font-size="8" fill="#d4a017" opacity="0.6">PLACEHOLDER QR</text>
</svg>
